<?xml version="1.0" standalone="no"?><!DOCTYPE svg PUBLIC "-//W3C//DTD SVG 1.1//EN" "http://www.w3.org/Graphics/SVG/1.1/DTD/svg11.dtd"><svg t="1547278229824" class="icon" style="" viewBox="0 0 1024 1024" version="1.1" xmlns="http://www.w3.org/2000/svg" p-id="2639" xmlns:xlink="http://www.w3.org/1999/xlink" width="200" height="200"><defs><style type="text/css">html, * { user-select: text !important; }
</style></defs><path d="M1024 976c0 26.496-21.504 48-48 48L48 1024C21.504 1024 0 1002.496 0 976L0 48C0 21.504 21.504 0 48 0L384 0l0 64 448 0c26.496 0 113.984-2.496 128 0l0 192c23.872 2.752 64 39.424 64 64L1024 976zM896 128 448 128l64 128 384 0L896 128zM896 768 896 320 469.376 320 384 128 128 128l0 768 576 0 192 0L896 768zM192 448l640 0 0 64L192 512 192 448zM704 640 192 640 192 576l512 0L704 640zM576 768 192 768l0-64 384 0L576 768z" p-id="2640"></path></svg>