<?xml version="1.0" standalone="no"?><!DOCTYPE svg PUBLIC "-//W3C//DTD SVG 1.1//EN" "http://www.w3.org/Graphics/SVG/1.1/DTD/svg11.dtd"><svg t="1547891205215" class="icon" style="" viewBox="0 0 1054 1024" version="1.1" xmlns="http://www.w3.org/2000/svg" p-id="2714" xmlns:xlink="http://www.w3.org/1999/xlink" width="205.859375" height="200"><defs><style type="text/css">html, * { user-select: text !important; }
</style></defs><path d="M546.133333 1024c-125.155556 0-239.691852-45.511111-328.438518-121.362963L0 932.219259l84.195556-207.834074c-29.582222-64.474074-45.511111-136.533333-45.511112-212.385185C38.684444 229.072593 265.481481 0 546.133333 0c280.651852 0 508.207407 229.072593 508.207408 512S826.785185 1024 546.133333 1024z m277.617778-513.517037v-1.517037c0-147.911111-103.917037-253.345185-283.685926-253.345185H345.884444v512h191.146667c181.285926 0.758519 286.72-109.226667 286.72-257.137778zM542.340741 642.465185H485.451852V381.534815h56.888889c83.437037 0 138.808889 47.786667 138.808889 129.706666v1.517038c-0.758519 82.678519-55.371852 129.706667-138.808889 129.706666z" fill="#2E9FFF" p-id="2715"></path></svg>