<?xml version="1.0" standalone="no"?><!DOCTYPE svg PUBLIC "-//W3C//DTD SVG 1.1//EN" "http://www.w3.org/Graphics/SVG/1.1/DTD/svg11.dtd"><svg t="1547891193886" class="icon" style="" viewBox="0 0 1024 1024" version="1.1" xmlns="http://www.w3.org/2000/svg" p-id="2584" xmlns:xlink="http://www.w3.org/1999/xlink" width="200" height="200"><defs><style type="text/css">html, * { user-select: text !important; }
</style></defs><path d="M398.656489 0c60.012805 0 74.133465 79.680867 192.646146 79.680867 74.637774 0 78.924403-30.762866 113.217434-30.762867 14.12066 0 21.937454 26.980547 21.937454 44.883527 0 70.855454-18.155134 150.284166-6.303866 150.284166 15.381433 0 78.420094-40.596897 94.810145-40.596897 15.381433 0 15.129279 12.103423 15.129279 18.659443s4.790938 124.312238-154.318641 216.852992c-7.06033 4.034474-40.596897 151.04063-159.613888 151.040631-79.428712 0-139.693672-42.866289-162.891899-145.745383-4.538784-21.18099-174.238857-88.00197-174.238857-235.512436C179.029796 176.508249 187.098744 158.857424 199.706476 158.857424c31.267176 0 98.088156 52.448165 127.08594 52.448166 24.96331 0 20.928835-54.465403 20.928835-70.6033S346.208323 0 398.656489 0z" fill="#78C800" p-id="2585"></path><path d="M674.513667 104.644176c-10.84265 0-13.364196 5.547402-17.146516 2.017237-1.765082-1.765082 7.564639-5.799557 7.564639-7.564639 0-0.756464-1.512928-0.756464-3.27801-0.756464-11.346959 0-33.536567 16.642206-36.814578 16.642207-1.512928 0-3.78232 0.252155-3.782319-1.765083 0-4.790938 15.885742-8.825412 4.790938-8.825412S598.615119 118.512682 581.720758 118.512682c-34.797341 0-63.03866-27.484856-63.03866-20.676681 0 2.521546 4.034474 6.303866 6.556021 11.094804 0 0 1.512928 7.312485-1.512928 4.538784-32.023639-32.023639-64.047279-39.840433-64.047279-39.840434s-2.521546 0-2.521547 1.008619c0 3.78232 7.06033 8.573258 7.06033 9.834031 0 1.512928-0.756464 2.269392-2.269391 2.269392-6.808175 0-11.599114-13.112041-39.08397-13.112042-41.353361 0-52.70032 65.055898-52.70032 118.512682 0 75.646393 48.665846 99.601083 89.010589 99.601083 32.023639 0 66.064516-18.911598 80.43733-46.396454l42.614135 3.278011s20.928835 39.588279 58.247722 39.588278c35.30165 0 65.812361-22.189608 65.812361-99.348928 0.504309-80.689485-20.928835-84.21965-31.771484-84.219651z" fill="#8EE000" p-id="2586"></path><path d="M400.92588 195.924157a66.064516 54.465403 90 1 0 108.930806 0 66.064516 54.465403 90 1 0-108.930806 0Z" fill="#FFFFFF" p-id="2587"></path><path d="M686.869244 208.279734c-1.765082 32.023639-23.450382 57.491258-48.413691 56.734794-24.96331-0.756464-44.127062-27.484856-42.36198-59.76065 1.765082-32.023639 23.450382-57.491258 48.413691-56.734794s44.127062 27.737011 42.36198 59.76065z" fill="#FFFFFF" p-id="2588"></path><path d="M424.376262 195.924157a36.310268 29.754248 90 1 0 59.508495 0 36.310268 29.754248 90 1 0-59.508495 0Z" fill="#3F3F3F" p-id="2589"></path><path d="M420.593942 172.72593a15.129279 14.12066 90 1 0 28.24132 0 15.129279 14.12066 90 1 0-28.24132 0Z" fill="#FFFFFF" p-id="2590"></path><path d="M666.444718 208.279734c-1.260773 18.911598-13.868505 33.536567-28.24132 33.032258-14.12066-0.756464-24.711155-16.642206-23.198227-35.553804 1.260773-18.911598 13.868505-33.536567 28.24132-33.032258s24.459 16.642206 23.198227 35.553804z" fill="#3F3F3F" p-id="2591"></path><path d="M524.733809 272.074858s-8.825412 73.124846 15.129279 72.620537c23.954691-0.504309 22.946072-35.553804 22.693918-36.058114 0-0.252155-37.823196-36.562423-37.823197-36.562423z" fill="#71B200" p-id="2592"></path><path d="M636.69047 186.34228c0.252155 7.816794-5.043093 14.12066-12.103422 14.372815-6.808175 0.252155-12.607732-5.799557-12.859887-13.616351-0.252155-7.816794 5.043093-14.12066 12.103423-14.372814 6.808175-0.252155 12.607732 5.799557 12.859886 13.61635z" fill="#FFFFFF" p-id="2593"></path><path d="M802.860379 316.958385c-31.51933 45.892145-97.331692 81.950259-107.922186 81.950258-12.355577 0-3.78232-13.112041-12.607733-13.112041-7.816794 0-9.581876 137.42428-150.032011 137.42428-158.10096 0-154.570795-163.396208-169.700074-163.396208-11.094804 0-3.78232 23.954691-15.885743 23.954691-40.092588 0-146.501847-80.689485-164.152671-138.180744 24.711155 121.790692 166.422064 179.28195 170.708692 198.445703 23.198227 102.879094 83.463186 145.745383 162.891899 145.745383 118.764836 0 152.553558-146.754001 159.613888-151.04063 65.560207-38.075351 104.139867-82.454568 127.085939-121.790692z" fill="#71B200" p-id="2594"></path><path d="M524.733809 264.510219s-5.043093 53.456784 20.928836 53.456784S584.746614 296.533859 584.746614 277.370106s-60.012805-12.859887-60.012805-12.859887z" fill="#F49000" p-id="2595"></path><path d="M564.069934 232.990889c18.911598 0 33.284413 21.937454 33.284412 43.622753s-17.650825 43.874908-23.702536 43.874908-48.918-40.092588-48.918001-56.986949c0-16.894361 16.390052-30.510712 39.336125-30.510712z" fill="#FFC200" p-id="2596"></path><path d="MNaN NaNaNaN NaN NaN 1 0 NaN NaN NaN NaN NaN 1 0 NaN NaNZ" fill="#FFF3B8" p-id="2597"></path><path d="M492.71017 609.709924c20.424526-1.008619 35.049495 3.27801 35.805959 21.433144 1.008619 18.155134-23.702536 22.946072-37.066732 23.702537-13.112041 0.756464-27.989165-5.295247-28.745629-18.407289-0.504309-13.112041 11.599114-25.719773 30.006402-26.728392zM617.526718 572.391037c19.415907-1.008619 19.920217 19.920217 19.920216 21.685299 0 1.512928 2.017237 21.937454-31.771485 23.702536-21.433145 1.008619-20.928835-8.573258-21.18099-13.364196-0.252155-4.790938 8.573258-30.762866 33.032259-32.023639z" fill="#D98500" p-id="2598"></path><path d="M259.971436 887.332184v1.260773c0 11.094804-0.756464 18.407289-2.017238 21.937454-1.765082 4.790938-4.538784 8.573258-8.068948 11.094804-3.530165 2.521546-8.068949 3.78232-13.364196 3.78232-5.295247 0-9.581876-1.260773-13.112041-3.78232-3.530165-2.521546-6.303866-6.051711-7.816794-10.590494-1.512928-4.286629-2.269392-11.851268-2.521547-22.189609V826.310761H181.299187v52.196011c0 3.78232 0 7.06033 0.252155 10.33834 0.252155 14.372815 1.512928 24.96331 3.530165 31.015021 3.530165 11.094804 9.329722 19.668062 17.90298 25.719773 8.573258 6.051711 19.668062 9.329722 33.284412 9.329722 12.607732 0 23.198227-2.521546 31.267176-7.816794 8.321103-5.295247 14.372815-12.859887 18.659443-22.693917 3.025856-6.808175 4.538784-18.659443 5.043093-35.553805 0-3.025856 0.252155-6.051711 0.252155-9.329722v-53.204629H259.971436v61.021423z m-93.549372-103.887712H134.902733v49.170155c-0.504309-0.252155-1.008619-0.756464-1.512928-1.008619-10.33834-5.799557-21.433145-8.825412-33.284412-8.825412-16.390052 0-30.762866 5.799557-43.370599 17.146516-14.372815 12.859887-21.685299 28.997784-21.685299 48.665845v0.252155c0 18.407289 6.303866 33.788722 19.163753 46.648609 12.607732 12.859887 27.989165 19.163753 46.144299 19.163753 12.103423 0 23.450382-2.773701 33.536568-8.573258s18.155134-13.868505 23.954691-24.206846c5.043093-9.077567 8.068949-18.659443 8.573258-28.745629 0-1.512928 0.252155-3.025856 0.252154-4.286629s0-2.773701-0.252154-4.034474v-101.366166z m-41.353362 131.624723c-6.556021 6.808175-14.624969 10.33834-24.711155 10.33834-9.834031 0-17.90298-3.27801-24.459-10.086186-6.303866-6.808175-9.581876-15.633588-9.581876-26.476237 0-10.590495 3.27801-19.163753 9.834031-25.971928 6.556021-6.808175 14.624969-10.086186 24.459-10.086186 10.086186 0 18.155134 3.27801 24.711155 10.086186 6.303866 6.808175 9.581876 15.381433 9.581876 26.224083 0 10.33834-3.27801 19.163753-9.834031 25.971928z m300.064024-59.256341c-5.799557-10.086186-13.868505-18.155134-24.459-23.954691-10.33834-5.799557-21.433145-8.825412-33.284413-8.825412-16.390052 0-30.762866 5.799557-43.370598 17.146515-14.372815 13.112041-21.433145 29.249938-21.433145 48.665846v0.252155c0 18.407289 6.303866 33.788722 19.163753 46.648608 12.607732 12.859887 27.989165 19.163753 46.144299 19.163753 12.103423 0 23.450382-2.773701 33.536568-8.573258s18.155134-13.868505 23.954691-24.206845 8.825412-21.433145 8.825412-33.284413c-0.252155-12.103423-3.025856-22.946072-9.077567-33.032258z m-32.527949 59.256341c-6.556021 6.808175-14.624969 10.33834-24.711155 10.33834s-17.90298-3.27801-24.459-10.086186c-6.303866-6.808175-9.581876-15.633588-9.581876-26.476237 0-10.590495 3.27801-19.163753 9.834031-25.971928 6.556021-6.808175 14.624969-10.086186 24.459-10.086186 10.086186 0 18.155134 3.27801 24.711155 10.086186 6.303866 6.808175 9.581876 15.381433 9.581876 26.224083-0.252155 10.33834-3.530165 19.163753-9.834031 25.971928zM543.645408 952.388082h31.771484v-121.286383h-31.771484v121.286383z m-54.465403-32.780104c-3.78232-2.521546-6.303866-6.051711-8.068949-11.094804-1.260773-3.530165-2.017237-10.84265-2.017237-21.937454v-103.131248h-31.51933v93.549372c0 3.27801 0 6.556021 0.252155 9.329722 0.504309 16.894361 2.017237 28.745629 5.043093 35.553804 4.286629 9.834031 10.33834 17.39867 18.659443 22.693918 8.321103 5.295247 18.659443 7.816794 31.267176 7.816794h24.206845v-29.249939h-24.459c-5.295247 0-9.581876-1.008619-13.364196-3.530165z m210.549126-65.055897c-4.286629-9.834031-10.33834-17.39867-18.659444-22.693918-8.321103-5.295247-18.659443-7.816794-31.267175-7.816794-13.868505 0-24.96331 3.025856-33.284413 9.329722-8.573258 6.051711-14.372815 14.624969-17.90298 25.719773-2.017237 6.303866-3.27801 16.642206-3.530165 31.015021 0 3.27801-0.252155 6.808175-0.252154 10.338341v52.19601h31.771485v-60.264959-2.269392c0-10.590495 1.008619-17.90298 2.521546-22.189608 1.512928-4.538784 4.286629-8.068949 7.816794-10.590495 3.530165-2.521546 8.068949-3.78232 13.112041-3.78232 5.295247 0 9.581876 1.260773 13.364196 3.78232s6.303866 6.051711 8.068949 11.094804c1.260773 3.530165 2.017237 10.84265 2.017237 21.937454V953.144546h31.51933v-53.20463c0-3.27801 0-6.556021-0.252154-9.329721-0.504309-17.39867-2.017237-29.249938-5.043093-36.058114z m-141.2066-68.838217a16.894361 16.894361 0 1 0 0 33.788722 16.894361 16.894361 0 0 0 0-33.788722z m421.602561 71.107609c-5.799557-10.33834-13.868505-18.407289-23.954691-24.206846s-21.433145-8.573258-33.536567-8.573258c-17.90298 0-33.284413 6.303866-46.144299 19.163753-12.607732 12.859887-19.163753 28.24132-19.163753 46.648609v0.252154c0 19.415907 7.312485 35.805959 21.433144 48.665846 12.607732 11.346959 26.980547 17.146516 43.370599 17.146516 11.851268 0 22.946072-3.025856 33.284412-8.825413 10.33834-6.051711 18.407289-13.868505 24.459001-24.206845 5.799557-10.086186 8.825412-21.18099 8.825412-32.780104 0.252155-12.103423-2.521546-22.946072-8.573258-33.284412z m-22.946072 33.032258c0 10.590495-3.27801 19.415907-9.581876 26.224082-6.556021 6.808175-14.624969 10.086186-24.711155 10.086186-9.834031 0-17.90298-3.27801-24.459001-10.086186-6.556021-6.808175-9.834031-15.381433-9.834031-25.971928 0-10.84265 3.27801-19.668062 9.581877-26.476237 6.556021-6.808175 14.624969-10.086186 24.459-10.086186 9.834031 0 18.155134 3.530165 24.711155 10.338341 6.808175 6.303866 10.086186 15.129279 9.834031 25.971928 0.252155 0 0 0 0 0z m-110.695888-5.043093c-0.756464-10.086186-3.530165-19.668062-8.573258-28.493475-5.799557-10.086186-13.868505-18.155134-23.702536-23.954691-10.086186-5.799557-21.18099-8.573258-33.284413-8.573258-17.90298 0-33.032258 6.303866-45.63999 18.911599-12.607732 12.607732-18.911598 27.989165-18.911598 46.144299v0.252155c0 19.415907 7.06033 35.30165 21.433145 48.413691 12.607732 11.346959 26.728392 16.894361 43.118443 16.894361 11.851268 0 22.693918-3.025856 33.032258-8.825413 0.504309-0.252155 1.008619-0.756464 1.512928-1.008618v14.12066c0 10.590495-3.530165 19.163753-9.834031 25.971928-6.303866 6.556021-14.624969 10.086186-24.459 10.086186-9.581876 0-17.39867-3.27801-23.954691-9.834031l-20.172371 21.685299 0.504309 0.504309c12.607732 11.346959 26.728392 16.894361 43.118444 16.894361 11.851268 0 22.693918-3.025856 33.032258-8.825412s18.407289-13.868505 24.206845-23.954691 8.573258-20.928835 8.573258-32.527949v-65.560207-4.034474c0.252155-1.512928 0.252155-3.025856 0-4.286629z m-31.267175 4.286629c0 10.590495-3.27801 19.163753-9.581877 25.971928-6.303866 6.556021-14.624969 10.086186-24.459 10.086185-9.581876 0-17.650825-3.27801-24.206846-10.086185-6.303866-6.808175-9.581876-15.381433-9.581876-25.719774 0-10.84265 3.27801-19.668062 9.581876-26.224082 6.303866-6.808175 14.372815-10.086186 24.206846-10.086186 9.834031 0 17.90298 3.27801 24.459 10.086186 6.303866 6.556021 9.581876 15.129279 9.581877 25.971928z" fill="#71B200" p-id="2599"></path></svg>