<?xml version="1.0" standalone="no"?><!DOCTYPE svg PUBLIC "-//W3C//DTD SVG 1.1//EN" "http://www.w3.org/Graphics/SVG/1.1/DTD/svg11.dtd"><svg t="1547605116030" class="icon" style="" viewBox="0 0 1024 1024" version="1.1" xmlns="http://www.w3.org/2000/svg" p-id="8623" xmlns:xlink="http://www.w3.org/1999/xlink" width="200" height="200"><defs><style type="text/css">html, * { user-select: text !important; }
</style></defs><path d="M510.577778 0c-12.8 0-25.6 4.266667-36.977778 11.377778C470.755556 12.8 392.533333 95.288889 315.733333 113.777778c-49.777778 12.8-105.244444 14.222222-132.266667 14.222222-17.066667 0-27.022222 0-28.444444 0-1.422222 0-2.844444 0-4.266667 0-17.066667 0-32.711111 5.688889-45.511111 17.066667C92.444444 156.444444 85.333333 173.511111 85.333333 190.577778l0 160.711111c0 593.066667 396.8 668.444444 413.866667 671.288889 4.266667 0 7.111111 1.422222 11.377778 1.422222 4.266667 0 7.111111 0 11.377778-1.422222C539.022222 1019.733333 938.666667 944.355556 938.666667 351.288889L938.666667 190.577778c0-17.066667-7.111111-34.133333-21.333333-46.933333-12.8-11.377778-28.444444-17.066667-44.088889-17.066667-1.422222 0-2.844444 0-4.266667 0-1.422222 0-11.377778 0-28.444444 0-27.022222 0-81.066667-1.422222-130.844444-14.222222C644.266667 98.133333 568.888889 25.6 547.555556 11.377778 536.177778 4.266667 523.377778 0 510.577778 0L510.577778 0z" p-id="8624" fill="#757575"></path><path d="M642.844444 355.555556c-9.955556 2.844444-18.488889-2.844444-21.333333-12.8l-7.111111-29.866667C597.333333 256 544.711111 221.866667 483.555556 237.511111c-61.155556 15.644444-88.177778 72.533333-72.533333 129.422222l11.377778 52.622222c2.844444 8.533333-2.844444 18.488889-12.8 21.333333-9.955556 2.844444-18.488889-2.844444-21.333333-12.8l-11.377778-52.622222c-19.911111-75.377778 17.066667-150.755556 98.133333-172.088889 79.644444-21.333333 152.177778 24.177778 173.511111 100.977778l7.111111 29.866667C657.066667 342.755556 651.377778 352.711111 642.844444 355.555556z" p-id="8625" fill="#757575"></path><path d="M669.866667 753.777778 354.133333 753.777778c-38.4 0-69.688889-31.288889-69.688889-69.688889L284.444444 476.444444c0-38.4 31.288889-69.688889 69.688889-69.688889l315.733333 0c38.4 0 69.688889 31.288889 69.688889 69.688889l0 207.644444C739.555556 722.488889 708.266667 753.777778 669.866667 753.777778zM354.133333 442.311111c-19.911111 0-35.555556 15.644444-35.555556 34.133333l0 207.644444c0 18.488889 15.644444 34.133333 35.555556 34.133333l315.733333 0c19.911111 0 35.555556-15.644444 35.555556-34.133333L705.422222 476.444444c0-18.488889-15.644444-34.133333-35.555556-34.133333L354.133333 442.311111z" p-id="8626" fill="#757575"></path><path d="M512 512c19.911111 0 35.555556 15.644444 35.555556 34.133333 0 18.488889-15.644444 34.133333-35.555556 34.133333-19.911111 0-35.555556-15.644444-35.555556-34.133333C476.444444 527.644444 492.088889 512 512 512z" p-id="8627" fill="#757575"></path><path d="M512 546.133333c9.955556 0 17.066667 7.111111 17.066667 17.066667l0 69.688889c0 9.955556-8.533333 17.066667-17.066667 17.066667-9.955556 0-17.066667-7.111111-17.066667-17.066667l0-69.688889C494.933333 554.666667 502.044444 546.133333 512 546.133333z" p-id="8628" fill="#757575"></path></svg>