<?xml version="1.0" standalone="no"?><!DOCTYPE svg PUBLIC "-//W3C//DTD SVG 1.1//EN" "http://www.w3.org/Graphics/SVG/1.1/DTD/svg11.dtd"><svg t="1547781925490" class="icon" style="" viewBox="0 0 1024 1024" version="1.1" xmlns="http://www.w3.org/2000/svg" p-id="1173" xmlns:xlink="http://www.w3.org/1999/xlink" width="200" height="200"><defs><style type="text/css">html, * { user-select: text !important; }
</style></defs><path d="M512 256c-65.872 0-127.119 24.844-174.083 68.755v-51.689c0-9.425-7.633-17.067-17.067-17.067-9.433 0-17.067 7.642-17.067 17.067v95.575c0 9.425 7.633 17.067 17.067 17.067h95.583c9.433 0 17.067-7.642 17.067-17.067s-7.633-17.067-17.067-17.067H359.16c40.947-39.226 94.841-61.442 152.84-61.442 122.333 0 221.867 99.525 221.867 221.867S634.333 733.867 512 733.867 290.133 634.342 290.133 512H256c0 141.158 114.833 256 256 256s256-114.842 256-256-114.833-256-256-256z" p-id="1174"></path><path d="M512 351.575c-9.433 0-17.067 7.642-17.067 17.067V512c0 2.222 0.453 4.434 1.316 6.52a17.056 17.056 0 0 0 3.696 5.558l95.555 95.564c3.333 3.333 7.7 5 12.067 5s8.733-1.667 12.067-5c6.667-6.667 6.667-17.467 0-24.133l-90.567-90.575V368.642c0-9.425-7.634-17.067-17.067-17.067z" p-id="1175"></path></svg>