<?xml version="1.0" standalone="no"?><!DOCTYPE svg PUBLIC "-//W3C//DTD SVG 1.1//EN" "http://www.w3.org/Graphics/SVG/1.1/DTD/svg11.dtd"><svg t="1547731055993" class="icon" style="" viewBox="0 0 1024 1024" version="1.1" xmlns="http://www.w3.org/2000/svg" p-id="883" xmlns:xlink="http://www.w3.org/1999/xlink" width="200" height="200"><defs><style type="text/css">html, * { user-select: text !important; }
</style></defs><path d="M932.4 469.5c16.4-15.9 22.2-39.4 15.1-61.1-7-21.8-25.5-37.3-48.1-40.6l-217.2-31.6c-8.5-1.2-15.8-6.5-19.6-14.2L565.5 125.2C555.4 104.7 534.9 92 512 92s-43.4 12.7-53.6 33.3L361.3 322.1c-3.8 7.6-11.1 13-19.6 14.2l-217.2 31.6c-22.6 3.3-41 18.9-48.1 40.6-7.1 21.7-1.3 45.1 15.1 61.1l157.2 153.4c6.2 5.9 9 14.6 7.5 23l-37.1 216.3c-3.9 22.5 5.2 44.9 23.7 58.3 18.5 13.4 42.6 15.1 62.8 4.5l194.3-102.2c7.6-4 16.6-4 24.2 0L718.4 925.1c8.8 4.6 18.3 6.9 27.8 6.9 12.3 0 24.6-3.9 35-11.6 18.5-13.4 27.6-35.8 23.7-58.3l-37.1-216.3c-1.4-8.4 1.4-17 7.5-23l157.1-153.3z m-503.2-9.1c-25.7 5.5-46 25.7-51.5 51.5l-0.2 0.2-0.1-0.1c-5.4-25.9-25.8-46.2-51.7-51.7l-0.1-0.1c26-5.4 46.4-25.8 51.8-51.8l0.1-0.1 0.1 0.1c5.4 25.9 25.8 46.3 51.7 51.7l-0.1 0.3z m268.9 0c-25.7 5.5-46 25.7-51.5 51.5l-0.2 0.2-0.1-0.1c-5.4-25.9-25.8-46.2-51.7-51.7l-0.1-0.1c26-5.4 46.4-25.8 51.8-51.8l0.1-0.1 0.1 0.1c5.4 25.9 25.8 46.3 51.7 51.7l-0.1 0.3z" p-id="884"></path></svg>