<?xml version="1.0" standalone="no"?><!DOCTYPE svg PUBLIC "-//W3C//DTD SVG 1.1//EN" "http://www.w3.org/Graphics/SVG/1.1/DTD/svg11.dtd"><svg t="1547731270876" class="icon" style="" viewBox="0 0 1024 1024" version="1.1" xmlns="http://www.w3.org/2000/svg" p-id="11144" xmlns:xlink="http://www.w3.org/1999/xlink" width="200" height="200"><defs><style type="text/css">html, * { user-select: text !important; }
</style></defs><path d="M511.452667 195.337213c-174.903433 0-316.723601 142.306687-316.723602 317.939898s141.820169 317.939898 316.723602 317.939898 316.723601-142.306687 316.723601-317.939898-141.698539-317.939898-316.723601-317.939898zM663.246466 489.194441l-71.518232 72.004751c-4.865186 4.986816-12.771113 4.865186-17.514669-0.243259-4.865186-4.986816-4.621927-13.136002 0.121629-18.001188L627.973869 488.951182l-74.072456-11.068298c-4.013778-0.608148-7.541038-3.284-9.365482-7.05452l-33.204894-69.328899-33.204894 69.328899c-1.824445 3.770519-5.351704 6.324742-9.365483 7.05452l-74.072455 11.068298 53.638675 54.003563c2.919112 2.919112 4.257038 7.176149 3.527259 11.311557L439.447915 630.528091l66.288158-36.002375c3.648889-1.946074 7.905927-1.946074 11.554817 0l66.288157 36.002375-1.459555-8.757334c-1.094667-6.93289 3.40563-13.500891 10.09526-14.717188 6.81126-1.216296 13.136002 3.40563 14.230669 10.33852l5.716593 34.177931c0.729778 4.865186-1.094667 9.730372-4.986815 12.527854-3.770519 2.797482-8.878964 3.284-13.014372 0.973037l-82.70816-44.88134-82.708161 44.88134c-1.824445 0.973037-3.770519 1.459556-5.716593 1.459556-2.554223 0-5.108445-0.851408-7.297779-2.432593-3.770519-2.919112-5.716593-7.662668-4.986815-12.527854l15.811854-95.114384-67.017936-67.382825c-3.284-3.40563-4.621927-8.514075-3.162371-13.136001 1.459556-4.621927 5.351704-8.027557 9.973631-8.757335l92.438532-13.86578 41.35408-86.600309c2.067704-4.378667 6.324742-7.176149 11.068298-7.176149s9.000594 2.797482 11.068298 7.176149l41.35408 86.600309 92.438532 13.86578c4.621927 0.729778 8.514075 4.135408 9.973631 8.757335s0.608148 9.852001-2.797482 13.257631z" p-id="11145"></path></svg>