<?xml version="1.0" standalone="no"?><!DOCTYPE svg PUBLIC "-//W3C//DTD SVG 1.1//EN" "http://www.w3.org/Graphics/SVG/1.1/DTD/svg11.dtd"><svg t="1547731863180" class="icon" style="" viewBox="0 0 1024 1024" version="1.1" xmlns="http://www.w3.org/2000/svg" p-id="29409" xmlns:xlink="http://www.w3.org/1999/xlink" width="200" height="200"><defs><style type="text/css">html, * { user-select: text !important; }
</style></defs><path d="M720.792044 884.775198H303.185376a69.63498 69.63498 0 0 0 0 139.224802h417.606668a69.589822 69.589822 0 0 0 0-139.224802zM929.606668 95.962603H94.393332A92.801482 92.801482 0 0 0 1.59185 188.764085v556.80889a92.801482 92.801482 0 0 0 92.801482 92.801482h835.213336c51.25532 0 92.778902-41.546162 92.778902-92.801482V188.764085a92.801482 92.801482 0 0 0-92.778902-92.801482z m46.400741 603.209631a92.801482 92.801482 0 0 1-92.778902 92.801482H140.794073a92.801482 92.801482 0 0 1-92.801482-92.801482v-464.007409a92.801482 92.801482 0 0 1 92.801482-92.801481h742.411854c51.25532 0 92.778902 41.546162 92.778902 92.801481v464.007409z" fill="#203646" p-id="29410"></path></svg>