<?xml version="1.0" standalone="no"?><!DOCTYPE svg PUBLIC "-//W3C//DTD SVG 1.1//EN" "http://www.w3.org/Graphics/SVG/1.1/DTD/svg11.dtd"><svg t="1547730362894" class="icon" style="" viewBox="0 0 1024 1024" version="1.1" xmlns="http://www.w3.org/2000/svg" p-id="5286" xmlns:xlink="http://www.w3.org/1999/xlink" width="200" height="200"><defs><style type="text/css">html, * { user-select: text !important; }
</style></defs><path d="M910.793765 204.556811l-329.178854-188.093059c-38.335401-21.919657-100.798424-21.983656-139.229823 0l-329.178854 188.093059c-38.335401 21.919657-69.630911 75.742816-69.630911 120.062123l0 374.746141c0 44.351307 31.167513 98.110466 69.630911 120.062123l329.178854 188.093059c38.335401 21.919657 100.798424 21.983656 139.229823 0l329.178854-188.093059c38.335401-21.919657 69.630911-75.742816 69.630911-120.062123l0-374.746141c0-44.319307-31.167513-98.110466-69.630911-120.062123zM769.675972 466.152721l-82.238714 81.822721c-17.087733 17.023734-27.743566 50.55921-23.711629 74.558834l19.391697 115.582193c4.031937 23.999625-9.951844 34.367463-31.039515 23.03964l-101.662411-54.591147c-21.11967-11.327823-55.67913-11.327823-76.7668 0l-101.662411 54.591147c-21.11967 11.359822-35.103451 0.991984-31.039515-23.03964l19.391697-115.582193c4.031937-23.999625-6.655896-57.5671-23.743629-74.558834l-82.238714-81.822721c-17.087733-17.023734-11.743816-33.791472 11.871814-37.311417l113.662223-16.863736c23.615631-3.519945 51.551194-24.255621 62.111029-46.07928l50.847205-105.150356c10.559835-21.855658 27.839565-21.855658 38.3994 0l50.815206 105.150356c10.559835 21.855658 38.527398 42.591334 62.111029 46.07928l113.630224 16.863736c23.583631 3.487945 28.927548 20.287683 11.839815 37.311417z" p-id="5287"></path></svg>