<?xml version="1.0" standalone="no"?><!DOCTYPE svg PUBLIC "-//W3C//DTD SVG 1.1//EN" "http://www.w3.org/Graphics/SVG/1.1/DTD/svg11.dtd"><svg t="1547731706298" class="icon" style="" viewBox="0 0 1024 1024" version="1.1" xmlns="http://www.w3.org/2000/svg" p-id="25137" xmlns:xlink="http://www.w3.org/1999/xlink" width="200" height="200"><defs><style type="text/css">html, * { user-select: text !important; }
</style></defs><path d="M896 453.76 896 448c0-211.84-172.16-384-384-384C300.16 64 128 236.16 128 448l0 5.76C90.88 467.2 64 502.4 64 544l0 128C64 725.12 106.88 768 160 768 213.12 768 256 725.12 256 672l0-128c0-41.6-26.88-76.8-64-90.24L192 448c0-176.64 143.36-320 320-320s320 143.36 320 320l0 5.76c-37.12 13.44-64 48.64-64 90.24l0 128c0 53.12 42.88 96 96 96 53.12 0 96-42.88 96-96l0-128C960 502.4 933.12 467.2 896 453.76zM640 957.44 640 928c0-17.92-14.08-32-32-32l-128 0C462.08 896 448 910.08 448 928l0 64C448 1009.92 462.08 1024 480 1024l128 0c159.36 0 288-114.56 288-256l-32 0L832 768C832 864.64 748.16 944 640 957.44z" p-id="25138"></path></svg>