<?xml version="1.0" standalone="no"?><!DOCTYPE svg PUBLIC "-//W3C//DTD SVG 1.1//EN" "http://www.w3.org/Graphics/SVG/1.1/DTD/svg11.dtd"><svg t="1547731791511" class="icon" style="" viewBox="0 0 1024 1024" version="1.1" xmlns="http://www.w3.org/2000/svg" p-id="26710" xmlns:xlink="http://www.w3.org/1999/xlink" width="200" height="200"><defs><style type="text/css">html, * { user-select: text !important; }
</style></defs><path d="M596.2 136H427.8c-201 0-364 163-364 364v285.8c0 56.5 45.8 102.3 102.3 102.3h430.1c201 0 364-163 364-364V500c0-201-163-364-364-364zM345.6 617.3c-46.5 0-84.2-37.7-84.2-84.2s37.7-84.2 84.2-84.2 84.2 37.7 84.2 84.2-37.7 84.2-84.2 84.2z m320.8 0c-46.5 0-84.2-37.7-84.2-84.2s37.7-84.2 84.2-84.2 84.2 37.7 84.2 84.2-37.7 84.2-84.2 84.2z" p-id="26711"></path></svg>