<?xml version="1.0" standalone="no"?><!DOCTYPE svg PUBLIC "-//W3C//DTD SVG 1.1//EN" "http://www.w3.org/Graphics/SVG/1.1/DTD/svg11.dtd"><svg t="1547731602019" class="icon" style="" viewBox="0 0 1024 1024" version="1.1" xmlns="http://www.w3.org/2000/svg" p-id="1451" xmlns:xlink="http://www.w3.org/1999/xlink" width="200" height="200"><defs><style type="text/css">html, * { user-select: text !important; }
</style></defs><path d="M511.975952 603.657536c63.051011 0 111.269199-48.172139 111.269199-111.245663l0-222.490304c0-63.051011-48.219211-111.272269-111.269199-111.272269-63.098083 0-111.222127 48.221258-111.222127 111.272269l0 222.490304C400.753825 555.485397 448.877869 603.657536 511.975952 603.657536M708.491675 492.410849c0 111.245663-92.709495 189.125405-196.515722 189.125405-103.854323 0-196.562794-77.879742-196.562794-189.125405l-63.002916 0c0 126.075417 100.124372 229.955322 222.49235 248.468978l0 122.367979 74.147744 0 0-122.367979c122.415051-18.513656 222.539422-122.393561 222.539422-248.468978L708.491675 492.410849z" p-id="1452"></path></svg>