<?xml version="1.0" standalone="no"?><!DOCTYPE svg PUBLIC "-//W3C//DTD SVG 1.1//EN" "http://www.w3.org/Graphics/SVG/1.1/DTD/svg11.dtd"><svg t="1547554518921" class="icon" style="" viewBox="0 0 1024 1024" version="1.1" xmlns="http://www.w3.org/2000/svg" p-id="9042" xmlns:xlink="http://www.w3.org/1999/xlink" width="200" height="200"><defs><style type="text/css">html, * { user-select: text !important; }
</style></defs><path d="M352.3 235.2v-17.1c0-84.8 69.4-154.2 154.2-154.2h9.6c84.8 0 154.2 69.4 154.2 154.2v202.4c0 84.8-69.4 154.2-154.2 154.2h-9.6c-84.8 0-154.2-69.4-154.2-154.2V235.2z" p-id="9043"></path><path d="M511.4 732.5c-179.5 0-325.5-146-325.5-325.5 0-19.4 15.8-35.2 35.2-35.2s35.2 15.8 35.2 35.2c0 140.7 114.5 255.1 255.1 255.1S766.5 547.7 766.5 407c0-19.4 15.8-35.2 35.2-35.2s35.2 15.8 35.2 35.2c0 179.5-146 325.5-325.5 325.5z" p-id="9044"></path><path d="M511.4 922.2c-19.4 0-35.2-15.8-35.2-35.2V726c0-19.4 15.8-35.2 35.2-35.2 19.4 0 35.2 15.8 35.2 35.2v161c0 19.5-15.8 35.2-35.2 35.2z" p-id="9045"></path><path d="M670.4 958.6H352.3c-19.4 0-35.2-15.8-35.2-35.2 0-19.4 15.8-35.2 35.2-35.2h318.1c19.4 0 35.2 15.8 35.2 35.2 0 19.5-15.7 35.2-35.2 35.2z" p-id="9046"></path></svg>