<?xml version="1.0" standalone="no"?><!DOCTYPE svg PUBLIC "-//W3C//DTD SVG 1.1//EN" "http://www.w3.org/Graphics/SVG/1.1/DTD/svg11.dtd"><svg t="1547605055183" class="icon" style="" viewBox="0 0 1024 1024" version="1.1" xmlns="http://www.w3.org/2000/svg" p-id="6655" xmlns:xlink="http://www.w3.org/1999/xlink" width="200" height="200"><defs><style type="text/css">html, * { user-select: text !important; }
</style></defs><path d="M816 841H208.7c-78.6 0-142.5-63.9-142.5-142.5V331.1c0-78.6 63.9-142.5 142.5-142.5h80.8c13.8 0 25 11.2 25 25s-11.2 25-25 25h-80.8c-51 0-92.5 41.5-92.5 92.5v367.3c0 51 41.5 92.5 92.5 92.5H816c51 0 92.5-41.5 92.5-92.5V331.1c0-51-41.5-92.5-92.5-92.5H421.7c-13.8 0-25-11.2-25-25s11.2-25 25-25H816c78.6 0 142.5 63.9 142.5 142.5v367.3c0 78.7-63.9 142.6-142.5 142.6z" p-id="6656" fill="#757575"></path><path d="M83.8 332.8h849.7v158.3H83.8zM781.7 701.7H623.6c-19.4 0-31.6-20.9-22-37.8l36.6-64.5c4.5-7.9 12.9-12.8 22-12.8h158.1c19.4 0 31.6 20.9 22 37.8l-36.6 64.5c-4.5 7.9-12.9 12.8-22 12.8z" p-id="6657" fill="#757575"></path></svg>