<?xml version="1.0" standalone="no"?><!DOCTYPE svg PUBLIC "-//W3C//DTD SVG 1.1//EN" "http://www.w3.org/Graphics/SVG/1.1/DTD/svg11.dtd"><svg t="1547731124367" class="icon" style="" viewBox="0 0 1024 1024" version="1.1" xmlns="http://www.w3.org/2000/svg" p-id="6151" xmlns:xlink="http://www.w3.org/1999/xlink" width="200" height="200"><defs><style type="text/css">html, * { user-select: text !important; }
</style></defs><path d="M796.444444 446.008889H343.608889v-125.155556c0-86.471111 70.542222-157.013333 157.013333-157.013333 86.471111 0 157.013333 70.542222 157.013334 157.013333 0 25.031111 20.48 45.511111 45.511111 45.511111s45.511111-20.48 45.511111-45.511111c0-136.533333-111.502222-248.035556-248.035556-248.035555S252.586667 184.32 252.586667 320.853333v125.155556H204.8c-25.031111 0-45.511111 20.48-45.511111 45.511111v420.977778c0 25.031111 20.48 45.511111 45.511111 45.511111h591.644444c25.031111 0 45.511111-20.48 45.511112-45.511111V491.52c0-25.031111-20.48-45.511111-45.511112-45.511111zM537.031111 737.28c-2.275556 0-4.551111 2.275556-4.551111 4.551111V785.066667c0 43.235556-13.653333 50.062222-31.857778 50.062222s-31.857778-4.551111-31.857778-50.062222v-36.408889-9.102222c0-2.275556-2.275556-4.551111-4.551111-4.551112-13.653333-9.102222-22.755556-25.031111-22.755555-45.511111 0-31.857778 27.306667-59.164444 59.164444-59.164444s59.164444 25.031111 59.164445 59.164444c2.275556 20.48-9.102222 36.408889-22.755556 47.786667z" fill="" p-id="6152"></path></svg>