<?xml version="1.0" standalone="no"?><!DOCTYPE svg PUBLIC "-//W3C//DTD SVG 1.1//EN" "http://www.w3.org/Graphics/SVG/1.1/DTD/svg11.dtd"><svg t="1547278205343" class="icon" style="" viewBox="0 0 1024 1024" version="1.1" xmlns="http://www.w3.org/2000/svg" p-id="1897" xmlns:xlink="http://www.w3.org/1999/xlink" width="200" height="200"><defs><style type="text/css">html, * { user-select: text !important; }
</style></defs><path d="M813.474192 141.305283h143.414318v176.974667H813.474192V141.305283zM813.474192 530.629289h143.414318v141.566226H813.474192V530.629289zM65.893756 530.629289h142.558833v141.566226H65.893756V530.629289zM65.893756 353.672018h142.558833v141.566226H65.893756V353.672018zM813.474192 353.672018h143.414318v141.566226H813.474192V353.672018zM65.893756 707.58656h142.558833v176.922479H65.893756V707.58656zM813.474192 707.58656h143.414318v176.922479H813.474192V707.58656zM65.893756 141.305283h142.558833v176.974667H65.893756V141.305283zM244.093321 884.509039h533.741163V141.287887H244.093321v743.221152z m178.198541-514.62785l249.477958 143.052066L422.291862 655.967926V369.881189z" fill="" p-id="1898"></path></svg>